:FULLY-SPECIFIED
:FORCE-ALL-JOINTS-BE-3DOF
:DEGREES
645
root 5.58616 16.4778 -2.93961 16.2037 13.4712 -1.02385
lfemur -15.7661 20.6 -26.941
ltibia 32.5739 -0 0
lfoot -37.3153 11.3375 0.080098
ltoes 24.2125 -0 0
rfemur -54.5015 -26.9145 26.8935
rtibia 62.7383 -0 0
rfoot -4.69586 -8.19891 -0.113609
rtoes 9.82313 -0 0
lowerback -0.834788 -3.60367 -5.36006
upperback -2.48966 -4.8217 0.688144
thorax -1.59361 -2.31526 3.7061
lowerneck -9.92472 -7.7525 -0.118255
upperneck 5.09634 -10.9461 7.36928
head 3.59663 -5.08967 1.60031
lclavicle 7.36497e-14 7.95139e-15 0
lhumerus -43.0455 -68.5412 123.29
lradius 75.2117 -0 0
lwrist 24.3095 0 0
lhand -3.78279 1.74987 -0.0144488
lfingers 7.12502 -0 0
lthumb 21.9639 30.5386 -0.00997002
rclavicle 7.36497e-14 7.95139e-15 0
rhumerus -33.9196 4.86545 -73.3045
rradius 75.698 -0 0
rwrist -21.6421 0 0
rhand -26.8785 -38.4998 0.096967
rfingers 7.12502 -0 0
rthumb -0.302738 -68.4782 0.0936543
646
root 5.5796 16.4444 -2.87025 16.4253 12.4107 -0.693146
lfemur -15.4384 20.8654 -27.4598
ltibia 32.2856 -0 0
lfoot -37.9656 11.8871 0.13222
ltoes 23.7629 -0 0
rfemur -55.4879 -27.6207 28.0832
rtibia 63.3467 -0 0
rfoot -5.14996 -8.56141 -0.11834
rtoes 9.91533 -0 0
lowerback -0.784638 -3.68191 -5.55466
upperback -2.41738 -4.92994 0.526075
thorax -1.53209 -2.37068 3.64553
lowerneck -9.91943 -7.67667 -0.190228
upperneck 4.75929 -10.8117 7.37693
head 3.50716 -5.0368 1.63917
lclavicle 7.36497e-14 7.95139e-15 0
lhumerus -43.6525 -68.9799 124.291
lradius 75.1159 -0 0
lwrist 24.4166 0 0
lhand -3.62094 2.0008 -0.0174974
lfingers 7.12502 -0 0
lthumb 22.1195 30.774 -0.0121934
rclavicle 7.36497e-14 7.95139e-15 0
rhumerus -35.4026 3.63319 -73.6789
rradius 73.7772 -0 0
rwrist -20.9295 0 0
rhand -27.0784 -39.7114 0.117092
rfingers 7.12502 -0 0
rthumb -0.4958 -69.6886 0.11307
647
root 5.57336 16.4101 -2.79817 16.6194 11.3423 -0.351494
lfemur -15.0888 21.1529 -27.996
ltibia 32.0015 -0 0
lfoot -38.6343 12.5179 0.194075
ltoes 23.2925 -0 0
rfemur -56.5361 -28.3192 29.3488
rtibia 64.0204 -0 0
rfoot -5.59167 -8.86156 -0.115244
rtoes 9.90604 -0 0
lowerback -0.724384 -3.76635 -5.75077
upperback -2.33582 -5.04686 0.359491
thorax -1.46607 -2.43082 3.58138
lowerneck -9.91515 -7.59287 -0.262649
upperneck 4.43728 -10.6663 7.36146
head 3.42187 -4.97873 1.67232
lclavicle 7.36497e-14 7.95139e-15 0
lhumerus -44.1724 -69.3874 125.227
lradius 74.9771 -0 0
lwrist 24.5177 0 0
lhand -3.4832 2.255 -0.0202664
lfingers 7.12502 -0 0
lthumb 22.2519 31.0148 -0.0142944
rclavicle 7.36497e-14 7.95139e-15 0
rhumerus -36.8132 2.30006 -74.004
rradius 71.8227 -0 0
rwrist -20.3005 0 0
rhand -27.3089 -40.9701 0.131888
rfingers 7.12502 -0 0
rthumb -0.718459 -70.9458 0.127339
648
root 5.56736 16.3753 -2.72331 16.7873 10.2683 -0.00515659
lfemur -14.7334 21.4586 -28.5353
ltibia 31.7495 -0 0
lfoot -39.2869 13.1985 0.262236
ltoes 22.7998 -0 0
rfemur -57.6206 -28.9903 30.6641
rtibia 64.74 -0 0
rfoot -6.02683 -9.10621 -0.105565
rtoes 9.81003 -0 0
lowerback -0.656661 -3.85606 -5.94281
upperback -2.2475 -5.17111 0.19179
thorax -1.39721 -2.49496 3.51402
lowerneck -9.91198 -7.50201 -0.33411
upperneck 4.13046 -10.5117 7.3247
head 3.3406 -4.91611 1.69971
lclavicle 7.36497e-14 7.95139e-15 0
lhumerus -44.5947 -69.7676 126.076
lradius 74.811 -0 0
lwrist 24.6143 0 0
lhand -3.37141 2.50717 -0.0226349
lfingers 7.12502 -0 0
lthumb 22.3594 31.2557 -0.0161756
rclavicle 7.36497e-14 7.95139e-15 0
rhumerus -38.1512 0.893883 -74.2667
rradius 69.8643 -0 0
rwrist -19.748 0 0
rhand -27.5614 -42.2541 0.140189
rfingers 7.12502 -0 0
rthumb -0.962303 -72.2282 0.135337
649
root 5.56156 16.3404 -2.64559 16.9307 9.19085 0.339622
lfemur -14.3881 21.7783 -29.0632
ltibia 31.5576 -0 0
lfoot -39.8888 13.8972 0.331738
ltoes 22.2833 -0 0
rfemur -58.7136 -29.6161 32.0008
rtibia 65.486 -0 0
rfoot -6.46126 -9.30222 -0.090728
rtoes 9.6421 -0 0
lowerback -0.584131 -3.95014 -6.12517
upperback -2.15501 -5.30133 0.0263861
thorax -1.32715 -2.56239 3.44384
lowerneck -9.90998 -7.40501 -0.403206
upperneck 3.83898 -10.3495 7.26856
head 3.2632 -4.84961 1.72129
lclavicle 7.36497e-14 7.95139e-15 0
lhumerus -44.9088 -70.1242 126.817
lradius 74.6334 -0 0
lwrist 24.7079 0 0
lhand -3.2874 2.752 -0.0244459
lfingers 7.12502 -0 0
lthumb 22.4401 31.4916 -0.0177028
rclavicle 7.36497e-14 7.95139e-15 0
rhumerus -39.4173 -0.557123 -74.4559
rradius 67.9318 -0 0
rwrist -19.2654 0 0
rhand -27.827 -43.5413 0.141362
rfingers 7.12502 -0 0
rthumb -1.21888 -73.5138 0.136457
650
root 5.5559 16.3057 -2.56497 17.0514 8.11227 0.676595
lfemur -14.0688 22.107 -29.5657
ltibia 31.4539 -0 0
lfoot -40.4058 14.5827 0.396072
ltoes 21.7414 -0 0
rfemur -59.7851 -30.1808 33.328
rtibia 66.2389 -0 0
rfoot -6.90074 -9.45638 -0.0723091
rtoes 9.41701 -0 0
lowerback -0.509479 -4.04774 -6.29224
upperback -2.06094 -5.43622 -0.133293
thorax -1.25753 -2.6324 3.37125
lowerneck -9.90924 -7.30279 -0.468533
upperneck 3.56302 -10.1812 7.19493
head 3.18949 -4.77989 1.73703
lclavicle 7.36497e-14 7.95139e-15 0
lhumerus -45.1041 -70.4609 127.429
lradius 74.4598 -0 0
lwrist 24.8001 0 0
lhand -3.233 2.98418 -0.0255188
lfingers 7.12502 -0 0
lthumb 22.4923 31.7175 -0.0187178
rclavicle 7.36497e-14 7.95139e-15 0
rhumerus -40.6132 -2.02449 -74.5615
rradius 66.055 -0 0
rwrist -18.8457 0 0
rhand -28.0971 -44.8099 0.13536
rfingers 7.12502 -0 0
rthumb -1.47972 -74.7806 0.130653
651
root 5.55032 16.2716 -2.48137 17.1517 7.03479 0.99949
lfemur -13.7909 22.4398 -30.0285
ltibia 31.4663 -0 0
lfoot -40.8038 15.224 0.447366
ltoes 21.1725 -0 0
rfemur -60.8026 -30.6707 34.6127
rtibia 66.9791 -0 0
rfoot -7.35105 -9.57549 -0.0520117
rtoes 9.14956 -0 0
lowerback -0.43542 -4.14803 -6.4384
upperback -1.9679 -5.57447 -0.283801
thorax -1.19003 -2.70431 3.29664
lowerneck -9.9098 -7.19628 -0.528689
upperneck 3.30272 -10.0084 7.10573
head 3.11931 -4.70761 1.74689
lclavicle 7.36497e-14 7.95139e-15 0
lhumerus -45.1698 -70.7813 127.891
lradius 74.3058 -0 0
lwrist 24.8923 0 0
lhand -3.21007 3.19838 -0.0256649
lfingers 7.12502 -0 0
lthumb 22.5142 31.9283 -0.0190511
rclavicle 7.36497e-14 7.95139e-15 0
rhumerus -41.7413 -3.47959 -74.5746
rradius 64.2639 -0 0
rwrist -18.4819 0 0
rhand -28.3629 -46.0379 0.122726
rfingers 7.12502 -0 0
rthumb -1.73638 -76.0069 0.118452
652
root 5.54475 16.2384 -2.39473 17.2338 5.96065 1.30198
lfemur -13.57 22.771 -30.4378
ltibia 31.6227 -0 0
lfoot -41.0492 15.7899 0.476756
ltoes 20.5752 -0 0
rfemur -61.732 -31.0744 35.8204
rtibia 67.6872 -0 0
rfoot -7.81794 -9.66631 -0.0316528
rtoes 8.85452 -0 0
lowerback -0.364695 -4.25019 -6.558
upperback -1.87854 -5.71482 -0.42167
thorax -1.12629 -2.7774 3.22042
lowerneck -9.91173 -7.08638 -0.582272
upperneck 3.05828 -9.83257 7.00291
head 3.05249 -4.63342 1.75082
lclavicle 7.36497e-14 7.95139e-15 0
lhumerus -45.0949 -71.0884 128.181
lradius 74.1872 -0 0
lwrist 24.9861 0 0
lhand -3.22042 3.38931 -0.0247036
lfingers 7.12502 -0 0
lthumb 22.5042 32.1187 -0.0185375
rclavicle 7.36497e-14 7.95139e-15 0
rhumerus -42.8042 -4.8937 -74.4873
rradius 62.5881 -0 0
rwrist -18.1674 0 0
rhand -28.6156 -47.2033 0.104575
rfingers 7.12502 -0 0
rthumb -1.98046 -77.1706 0.100929
653
root 5.53915 16.2064 -2.30498 17.3005 4.89207 1.57769
lfemur -13.4213 23.0952 -30.78
ltibia 31.9512 -0 0
lfoot -41.1081 16.2494 0.474932
ltoes 19.9477 -0 0
rfemur -62.5377 -31.3819 36.9154
rtibia 68.3437 -0 0
rfoot -8.30718 -9.73558 -0.0131546
rtoes 8.54668 -0 0
lowerback -0.300073 -4.35345 -6.6454
upperback -1.79553 -5.85603 -0.543414
thorax -1.06798 -2.851 3.143
lowerneck -9.91507 -6.97403 -0.627884
upperneck 2.82986 -9.65523 6.88841
head 2.98888 -4.55799 1.74879
lclavicle 7.36497e-14 7.95139e-15 0
lhumerus -44.8682 -71.3851 128.277
lradius 74.1195 -0 0
lwrist 25.0828 0 0
lhand -3.26589 3.55164 -0.022481
lfingers 7.12502 -0 0
lthumb 22.4603 32.2838 -0.0170326
rclavicle 7.36497e-14 7.95139e-15 0
rhumerus -43.8047 -6.2381 -74.2922
rradius 61.0577 -0 0
rwrist -17.895 0 0
rhand -28.8467 -48.2843 0.082534
rfingers 7.12502 -0 0
rthumb -2.20362 -78.2501 0.0796555
654
root 5.53346 16.1761 -2.21207 17.3545 3.83124 1.82013
lfemur -13.3598 23.4067 -31.0412
ltibia 32.4796 -0 0
lfoot -40.9468 16.5712 0.432871
ltoes 19.2887 -0 0
rfemur -63.1839 -31.5849 37.8614
rtibia 68.9291 -0 0
rfoot -8.82452 -9.78999 0.00145686
rtoes 8.24082 -0 0
lowerback -0.24435 -4.45705 -6.69492
upperback -1.72157 -5.99686 -0.645527
thorax -1.01676 -2.92441 3.06481
lowerneck -9.91985 -6.86013 -0.664126
upperneck 2.61767 -9.47784 6.76421
head 2.92829 -4.48196 1.74075
lclavicle 7.36497e-14 7.95139e-15 0
lhumerus -44.4779 -71.6737 128.158
lradius 74.1184 -0 0
lwrist 25.1841 0 0
lhand -3.34833 3.68005 -0.0188899
lfingers 7.12502 -0 0
lthumb 22.3809 32.4184 -0.0144308
rclavicle 7.36497e-14 7.95139e-15 0
rhumerus -44.7451 -7.48411 -73.9825
rradius 59.7023 -0 0
rwrist -17.6581 0 0
rhand -29.0475 -49.2589 0.0586526
rfingers 7.12502 -0 0
rthumb -2.39762 -79.2234 0.0566073
655
root 5.52761 16.1478 -2.11593 17.3991 2.78034 2.02272
lfemur -13.4007 23.6999 -31.2081
ltibia 33.2361 -0 0
lfoot -40.5314 16.7233 0.342753
ltoes 18.5966 -0 0
rfemur -63.6348 -31.6755 38.6225
rtibia 69.4239 -0 0
rfoot -9.37573 -9.83622 0.0100467
rtoes 7.95172 -0 0
lowerback -0.200345 -4.56022 -6.7009
upperback -1.65939 -6.1361 -0.724485
thorax -0.974302 -2.99696 2.98626
lowerneck -9.9261 -6.74561 -0.689602
upperneck 2.42192 -9.30185 6.63228
head 2.87056 -4.406 1.72669
lclavicle 7.36497e-14 7.95139e-15 0
lhumerus -43.9117 -71.9557 127.801
lradius 74.1995 -0 0
lwrist 25.2914 0 0
lhand -3.46957 3.76922 -0.0138913
lfingers 7.12502 -0 0
lthumb 22.2641 32.5173 -0.0106853
rclavicle 7.36497e-14 7.95139e-15 0
rhumerus -45.6271 -8.60311 -73.5521
rradius 58.5519 -0 0
rwrist -17.4497 0 0
rhand -29.2097 -50.1051 0.0352798
rfingers 7.12502 -0 0
rthumb -2.55427 -80.0687 0.0340506
